<svg width="20" height="20" viewBox="0 0 20 20" fill="none" xmlns="http://www.w3.org/2000/svg">
<path d="M9.99996 18.3332C5.39746 18.3332 1.66663 14.6023 1.66663 9.99984C1.66663 5.39734 5.39746 1.6665 9.99996 1.6665C14.6025 1.6665 18.3333 5.39734 18.3333 9.99984C18.3333 14.6023 14.6025 18.3332 9.99996 18.3332ZM9.99996 16.6665C11.7681 16.6665 13.4638 15.9641 14.714 14.7139C15.9642 13.4636 16.6666 11.7679 16.6666 9.99984C16.6666 8.23173 15.9642 6.53603 14.714 5.28579C13.4638 4.03555 11.7681 3.33317 9.99996 3.33317C8.23185 3.33317 6.53616 4.03555 5.28591 5.28579C4.03567 6.53603 3.33329 8.23173 3.33329 9.99984C3.33329 11.7679 4.03567 13.4636 5.28591 14.7139C6.53616 15.9641 8.23185 16.6665 9.99996 16.6665ZM5.83329 10.8332H13.3333V12.4998H9.99996V14.9998L5.83329 10.8332ZM9.99996 7.49984V4.99984L14.1666 9.1665H6.66663V7.49984H9.99996Z" fill="#16113D"/>
</svg>
