<svg width="20" height="20" viewBox="0 0 20 20" fill="none" xmlns="http://www.w3.org/2000/svg">
<g clip-path="url(#clip0_1301_12339)">
<path d="M14.7247 8.39988H10.4497V9.97488C10.4497 11.0914 9.54123 11.9999 8.42466 11.9999C7.3081 11.9999 6.39966 11.0914 6.39966 9.97488V6.55488L4.57435 7.65175C4.03154 7.97519 3.69966 8.563 3.69966 9.193V10.5233L1.44966 11.8227C1.01935 12.0702 0.87029 12.6214 1.1206 13.0518L3.3706 16.9499C3.6181 17.3802 4.16935 17.5264 4.59966 17.2789L7.50779 15.5999H11.3497C12.3425 15.5999 13.1497 14.7927 13.1497 13.7999H13.5997C14.0975 13.7999 14.4997 13.3977 14.4997 12.8999V11.0999H14.7247C15.0987 11.0999 15.3997 10.7989 15.3997 10.4249V9.07488C15.3997 8.70082 15.0987 8.39988 14.7247 8.39988ZM18.8787 7.348L16.6287 3.44988C16.3812 3.01957 15.83 2.87332 15.3997 3.12082L12.4915 4.79988H9.61716C9.27966 4.79988 8.9506 4.8955 8.66373 5.07269L7.72154 5.6605C7.45716 5.82363 7.29966 6.11332 7.29966 6.42269V9.97488C7.29966 10.5964 7.8031 11.0999 8.42466 11.0999C9.04623 11.0999 9.54966 10.5964 9.54966 9.97488V7.49988H14.7247C15.5937 7.49988 16.2997 8.20582 16.2997 9.07488V9.87644L18.5497 8.57707C18.98 8.32675 19.1262 7.77832 18.8787 7.348Z" fill="#16113D"/>
</g>
<defs>
<clipPath id="clip0_1301_12339">
<rect width="18" height="14.4" fill="white" transform="translate(1 3)"/>
</clipPath>
</defs>
</svg>
