<svg width="20" height="20" viewBox="0 0 20 20" fill="none" xmlns="http://www.w3.org/2000/svg">
<path d="M4.16671 7.49984C4.38772 7.49984 4.59968 7.58763 4.75596 7.74392C4.91224 7.9002 5.00004 8.11216 5.00004 8.33317C6.30933 8.33124 7.58086 8.77173 8.60837 9.58317H10.4167C11.5275 9.58317 12.525 10.0665 13.2117 10.8332H15.8334C16.6211 10.833 17.3927 11.056 18.0588 11.4765C18.7249 11.897 19.2581 12.4978 19.5967 13.209C17.6259 15.8098 14.435 17.4998 10.8334 17.4998C8.50837 17.4998 6.54171 16.9973 4.95004 16.1182C4.89174 16.2791 4.78524 16.418 4.64505 16.5162C4.50487 16.6143 4.33783 16.6668 4.16671 16.6665H1.66671C1.44569 16.6665 1.23373 16.5787 1.07745 16.4224C0.921171 16.2661 0.833374 16.0542 0.833374 15.8332V8.33317C0.833374 8.11216 0.921171 7.9002 1.07745 7.74392C1.23373 7.58763 1.44569 7.49984 1.66671 7.49984H4.16671ZM5.00087 9.99984L5.00004 14.1848L5.03754 14.2115C6.53337 15.2615 8.48171 15.8332 10.8334 15.8332C13.3367 15.8332 15.6659 14.8698 17.3625 13.2248L17.4734 13.114L17.3734 13.0307C16.9799 12.7225 16.5029 12.5396 16.0042 12.5057L15.8334 12.4998H14.0742C14.1342 12.7682 14.1667 13.0465 14.1667 13.3332V14.1665H6.66671V12.4998L12.325 12.499L12.2967 12.434C12.137 12.1003 11.8913 11.8151 11.585 11.6077C11.2786 11.4003 10.9225 11.2783 10.5534 11.254L10.4167 11.2498H7.97504C7.5878 10.8538 7.12527 10.5392 6.61464 10.3245C6.10402 10.1098 5.55562 9.99944 5.00171 9.99984H5.00087ZM3.33337 9.1665H2.50004V14.9998H3.33337V9.1665ZM15 4.1665C15.6631 4.1665 16.299 4.4299 16.7678 4.89874C17.2367 5.36758 17.5 6.00346 17.5 6.6665C17.5 7.32955 17.2367 7.96543 16.7678 8.43427C16.299 8.90311 15.6631 9.1665 15 9.1665C14.337 9.1665 13.7011 8.90311 13.2323 8.43427C12.7634 7.96543 12.5 7.32955 12.5 6.6665C12.5 6.00346 12.7634 5.36758 13.2323 4.89874C13.7011 4.4299 14.337 4.1665 15 4.1665ZM15 5.83317C14.779 5.83317 14.5671 5.92097 14.4108 6.07725C14.2545 6.23353 14.1667 6.44549 14.1667 6.6665C14.1667 6.88752 14.2545 7.09948 14.4108 7.25576C14.5671 7.41204 14.779 7.49984 15 7.49984C15.2211 7.49984 15.433 7.41204 15.5893 7.25576C15.7456 7.09948 15.8334 6.88752 15.8334 6.6665C15.8334 6.44549 15.7456 6.23353 15.5893 6.07725C15.433 5.92097 15.2211 5.83317 15 5.83317ZM9.16671 1.6665C9.82975 1.6665 10.4656 1.9299 10.9345 2.39874C11.4033 2.86758 11.6667 3.50346 11.6667 4.1665C11.6667 4.82955 11.4033 5.46543 10.9345 5.93427C10.4656 6.40311 9.82975 6.6665 9.16671 6.6665C8.50367 6.6665 7.86778 6.40311 7.39894 5.93427C6.9301 5.46543 6.66671 4.82955 6.66671 4.1665C6.66671 3.50346 6.9301 2.86758 7.39894 2.39874C7.86778 1.9299 8.50367 1.6665 9.16671 1.6665ZM9.16671 3.33317C8.94569 3.33317 8.73373 3.42097 8.57745 3.57725C8.42117 3.73353 8.33337 3.94549 8.33337 4.1665C8.33337 4.38752 8.42117 4.59948 8.57745 4.75576C8.73373 4.91204 8.94569 4.99984 9.16671 4.99984C9.38772 4.99984 9.59968 4.91204 9.75596 4.75576C9.91224 4.59948 10 4.38752 10 4.1665C10 3.94549 9.91224 3.73353 9.75596 3.57725C9.59968 3.42097 9.38772 3.33317 9.16671 3.33317Z" fill="#16113D"/>
</svg>
