<svg width="94" height="23" viewBox="0 0 94 23" fill="none" xmlns="http://www.w3.org/2000/svg">
<path d="M0.584 0.0079999H6.344V12.104H11.984V17H0.584V0.0079999ZM26.918 10.64C26.918 11.728 26.718 12.696 26.318 13.544C25.934 14.392 25.406 15.112 24.734 15.704C24.078 16.28 23.31 16.72 22.43 17.024C21.566 17.328 20.654 17.48 19.694 17.48C18.75 17.48 17.838 17.328 16.958 17.024C16.094 16.72 15.334 16.28 14.678 15.704C14.022 15.112 13.494 14.392 13.094 13.544C12.71 12.696 12.518 11.728 12.518 10.64C12.518 9.568 12.71 8.616 13.094 7.784C13.494 6.936 14.022 6.224 14.678 5.648C15.334 5.072 16.094 4.64 16.958 4.352C17.838 4.048 18.75 3.896 19.694 3.896C20.654 3.896 21.566 4.048 22.43 4.352C23.31 4.64 24.078 5.072 24.734 5.648C25.406 6.224 25.934 6.936 26.318 7.784C26.718 8.616 26.918 9.568 26.918 10.64ZM19.694 8.552C19.086 8.552 18.59 8.76 18.206 9.176C17.838 9.592 17.654 10.08 17.654 10.64C17.654 11.232 17.846 11.736 18.23 12.152C18.614 12.568 19.11 12.776 19.718 12.776C20.326 12.776 20.822 12.568 21.206 12.152C21.59 11.736 21.782 11.232 21.782 10.64C21.782 10.08 21.582 9.592 21.182 9.176C20.798 8.76 20.302 8.552 19.694 8.552ZM28.4555 10.64C28.4555 9.824 28.5755 9.024 28.8155 8.24C29.0715 7.456 29.4395 6.752 29.9195 6.128C30.3995 5.504 30.9995 5 31.7195 4.616C32.4395 4.232 33.2715 4.04 34.2155 4.04C34.8875 4.04 35.5435 4.168 36.1835 4.424C36.8395 4.68 37.3755 5.088 37.7915 5.648H37.8635V4.376H43.0715V15.704C43.0715 17.08 42.8475 18.224 42.3995 19.136C41.9515 20.048 41.3515 20.768 40.5995 21.296C39.8635 21.84 39.0235 22.216 38.0795 22.424C37.1355 22.648 36.1755 22.76 35.1995 22.76C33.9995 22.76 32.7995 22.6 31.5995 22.28C30.3995 21.976 29.3515 21.52 28.4555 20.912L30.8795 17.24C31.4875 17.704 32.1275 18.04 32.7995 18.248C33.4715 18.472 34.1115 18.584 34.7195 18.584C35.1195 18.584 35.4955 18.528 35.8475 18.416C36.2155 18.32 36.5355 18.168 36.8075 17.96C37.0795 17.768 37.2955 17.52 37.4555 17.216C37.6155 16.928 37.6955 16.592 37.6955 16.208V15.656H37.6235C37.3195 16.008 36.8635 16.32 36.2555 16.592C35.6635 16.864 34.9835 17 34.2155 17C33.2395 17 32.3915 16.832 31.6715 16.496C30.9515 16.144 30.3515 15.68 29.8715 15.104C29.3915 14.512 29.0315 13.832 28.7915 13.064C28.5675 12.296 28.4555 11.488 28.4555 10.64ZM33.5915 10.64C33.5915 11.248 33.7675 11.76 34.1195 12.176C34.4715 12.576 34.9835 12.776 35.6555 12.776C36.3115 12.776 36.8315 12.568 37.2155 12.152C37.6155 11.736 37.8155 11.232 37.8155 10.64C37.8155 10.08 37.6155 9.592 37.2155 9.176C36.8315 8.76 36.3115 8.552 35.6555 8.552C34.9835 8.552 34.4715 8.76 34.1195 9.176C33.7675 9.592 33.5915 10.08 33.5915 10.64ZM59.5899 10.64C59.5899 11.728 59.3899 12.696 58.9899 13.544C58.6059 14.392 58.0779 15.112 57.4059 15.704C56.7499 16.28 55.9819 16.72 55.1019 17.024C54.2379 17.328 53.3259 17.48 52.3659 17.48C51.4219 17.48 50.5099 17.328 49.6299 17.024C48.7659 16.72 48.0059 16.28 47.3499 15.704C46.6939 15.112 46.1659 14.392 45.7659 13.544C45.3819 12.696 45.1899 11.728 45.1899 10.64C45.1899 9.568 45.3819 8.616 45.7659 7.784C46.1659 6.936 46.6939 6.224 47.3499 5.648C48.0059 5.072 48.7659 4.64 49.6299 4.352C50.5099 4.048 51.4219 3.896 52.3659 3.896C53.3259 3.896 54.2379 4.048 55.1019 4.352C55.9819 4.64 56.7499 5.072 57.4059 5.648C58.0779 6.224 58.6059 6.936 58.9899 7.784C59.3899 8.616 59.5899 9.568 59.5899 10.64ZM52.3659 8.552C51.7579 8.552 51.2619 8.76 50.8779 9.176C50.5099 9.592 50.3259 10.08 50.3259 10.64C50.3259 11.232 50.5179 11.736 50.9019 12.152C51.2859 12.568 51.7819 12.776 52.3899 12.776C52.9979 12.776 53.4939 12.568 53.8779 12.152C54.2619 11.736 54.4539 11.232 54.4539 10.64C54.4539 10.08 54.2539 9.592 53.8539 9.176C53.4699 8.76 52.9739 8.552 52.3659 8.552Z" fill="#16113D"/>
<path d="M67.5354 6.584H72.7194V11.24H67.5594V17H61.9434V0.0079999H73.4154V4.784H67.5354V6.584ZM83.7367 12.032L80.7847 17H74.0167L80.0887 8.144L74.3287 0.0079999H81.2167L83.9047 4.472L86.4727 0.0079999H93.1927L87.5287 8.072L93.7927 17H86.8087L83.7367 12.032Z" fill="#4D49B4"/>
</svg>
