<svg width="20" height="20" viewBox="0 0 20 20" fill="none" xmlns="http://www.w3.org/2000/svg">
<path d="M11.6667 11.8768V13.6185C10.9125 13.3518 10.1053 13.27 9.31288 13.38C8.52048 13.4899 7.76604 13.7884 7.1129 14.2503C6.45976 14.7123 5.92699 15.3242 5.55934 16.0347C5.19169 16.7452 4.99989 17.5335 5.00004 18.3335L3.33337 18.3327C3.33312 17.3151 3.56581 16.3109 4.01362 15.3972C4.46144 14.4834 5.11249 13.6843 5.91689 13.061C6.72129 12.4378 7.65769 12.0069 8.65434 11.8015C9.65098 11.5961 10.6814 11.6216 11.6667 11.876V11.8768ZM10 10.8335C7.23754 10.8335 5.00004 8.596 5.00004 5.8335C5.00004 3.071 7.23754 0.833496 10 0.833496C12.7625 0.833496 15 3.071 15 5.8335C15 8.596 12.7625 10.8335 10 10.8335ZM10 9.16683C11.8417 9.16683 13.3334 7.67516 13.3334 5.8335C13.3334 3.99183 11.8417 2.50016 10 2.50016C8.15837 2.50016 6.66671 3.99183 6.66671 5.8335C6.66671 7.67516 8.15837 9.16683 10 9.16683ZM15 14.1668V11.6668H16.6667V14.1668H19.1667V15.8335H16.6667V18.3335H15V15.8335H12.5V14.1668H15Z" fill="#16113D"/>
</svg>
